<?xml version="1.0" standalone="no"?>
<!DOCTYPE svg PUBLIC "-//W3C//DTD SVG 20010904//EN"
 "http://www.w3.org/TR/2001/REC-SVG-20010904/DTD/svg10.dtd">
<svg version="1.0" xmlns="http://www.w3.org/2000/svg"
 width="3508.000000pt" height="3508.000000pt" viewBox="0 0 3508.000000 3508.000000"
 preserveAspectRatio="xMidYMid meet">
<metadata>
Created by potrace 1.14, written by Peter Selinger 2001-2017
</metadata>
<g transform="translate(0.000000,3508.000000) scale(0.100000,-0.100000)"
fill="#000000" stroke="none">
<path d="M27738 26655 c-2 -1 -41 -5 -88 -9 -219 -17 -456 -62 -720 -137 -162
-46 -467 -153 -485 -170 -5 -5 -15 -9 -22 -9 -7 0 -38 -12 -70 -26 -32 -14
-67 -30 -78 -35 -140 -59 -522 -256 -643 -330 -35 -22 -65 -39 -68 -39 -19 0
-564 -361 -654 -433 -8 -7 -40 -30 -70 -52 -53 -38 -259 -198 -304 -235 -11
-10 -64 -53 -116 -96 -114 -94 -322 -276 -405 -354 -333 -314 -523 -508 -755
-765 -74 -82 -137 -152 -141 -155 -4 -4 -240 -285 -298 -355 -166 -203 -439
-564 -599 -794 -389 -560 -710 -1100 -1000 -1681 -124 -248 -151 -305 -255
-535 -61 -137 -208 -499 -253 -625 -19 -52 -38 -104 -43 -115 -5 -11 -26 -69
-46 -130 -20 -60 -44 -129 -52 -152 l-15 -42 -77 127 c-240 395 -544 834 -798
1152 -7 8 -60 76 -119 150 -59 74 -111 137 -114 140 -4 3 -55 64 -115 135 -60
72 -111 132 -115 135 -3 3 -35 38 -70 79 -36 41 -76 86 -90 100 -14 14 -74 80
-135 146 -294 323 -941 945 -1260 1212 -58 48 -89 74 -130 111 -40 36 -290
242 -324 267 -30 22 -123 97 -131 105 -20 22 -465 355 -680 510 -216 156 -576
400 -589 400 -5 0 -11 4 -13 8 -5 13 -391 257 -643 406 -126 75 -237 141 -245
146 -24 15 -232 132 -275 156 -22 12 -65 35 -95 52 -308 170 -775 403 -1115
557 -79 36 -148 66 -180 80 -16 7 -51 22 -77 34 -27 12 -87 37 -135 57 -80 33
-119 49 -178 75 -11 4 -56 22 -100 39 -44 17 -89 35 -100 39 -49 22 -325 125
-405 151 -14 5 -83 29 -155 55 -269 95 -698 224 -1031 310 -96 24 -119 30
-171 41 -12 2 -35 9 -50 15 -16 6 -29 10 -31 9 -2 -1 -45 7 -82 15 -3 1 -30 7
-60 13 -30 7 -64 14 -75 16 -201 41 -295 60 -365 72 -120 21 -130 23 -175 29
-22 4 -80 13 -130 20 -49 8 -117 17 -150 20 -33 4 -67 8 -75 10 -8 2 -46 7
-85 11 -38 3 -83 8 -100 10 -16 2 -57 6 -90 9 -33 3 -78 8 -100 10 -251 27
-1025 27 -1250 0 -22 -3 -62 -7 -90 -10 -123 -11 -164 -16 -250 -31 -11 -2
-64 -10 -118 -19 -124 -19 -337 -67 -478 -106 -114 -31 -353 -111 -404 -134
-16 -7 -53 -23 -81 -34 -155 -60 -409 -197 -573 -308 -211 -143 -454 -364
-603 -549 -185 -230 -342 -517 -442 -807 -37 -105 -99 -344 -110 -422 -4 -23
-8 -51 -11 -64 -2 -13 -7 -49 -11 -80 -3 -31 -8 -65 -10 -75 -27 -144 -20
-707 11 -866 2 -14 7 -52 11 -85 3 -33 10 -78 14 -100 5 -22 11 -60 15 -85 13
-95 73 -349 130 -549 30 -110 133 -416 155 -466 5 -11 30 -74 56 -140 26 -66
58 -145 71 -175 14 -30 39 -86 56 -125 137 -309 411 -811 615 -1130 160 -250
435 -646 453 -653 5 -2 9 -8 9 -12 0 -14 416 -550 449 -580 6 -5 93 -108 127
-149 10 -13 24 -28 29 -35 6 -6 39 -45 75 -86 36 -41 72 -82 80 -90 8 -8 53
-58 100 -110 255 -283 671 -700 1006 -1006 137 -125 326 -292 423 -374 29 -25
59 -50 65 -55 45 -41 303 -252 450 -368 106 -84 517 -395 563 -427 12 -8 88
-63 170 -121 81 -58 213 -150 293 -204 80 -54 149 -102 154 -106 7 -6 -28 -85
-45 -99 -13 -11 -271 -543 -324 -668 -62 -147 -154 -379 -160 -402 -2 -8 -20
-59 -40 -114 -58 -160 -166 -522 -199 -666 -20 -87 -67 -309 -76 -360 -11 -62
-15 -84 -25 -140 -5 -23 -31 -213 -40 -290 -11 -86 -20 -197 -31 -365 -5 -87
-5 -524 1 -585 2 -25 6 -86 10 -137 3 -51 7 -100 9 -110 2 -10 7 -45 10 -78 8
-71 15 -121 21 -155 3 -14 7 -41 10 -60 13 -80 58 -291 82 -380 309 -1171
1059 -2049 2149 -2515 172 -74 532 -189 685 -220 9 -2 59 -12 110 -23 52 -11
117 -23 144 -27 28 -3 57 -8 65 -10 8 -2 35 -6 60 -9 25 -3 56 -8 70 -10 14
-2 59 -7 100 -11 41 -4 89 -8 105 -10 43 -5 336 -18 425 -18 81 0 383 12 440
18 19 2 67 6 105 9 71 7 139 14 185 21 14 2 48 7 75 10 28 3 75 10 105 15 30
5 73 12 95 15 22 4 47 8 56 11 9 2 32 7 50 9 19 3 45 7 59 11 14 3 54 12 90
19 176 36 531 133 735 200 730 243 1434 597 2105 1059 191 132 475 345 578
434 29 25 63 53 75 61 12 9 36 27 52 42 17 14 89 77 160 140 267 233 589 553
848 842 78 87 307 362 352 422 16 22 32 42 35 45 4 3 19 23 35 45 17 22 32 42
35 45 22 21 236 322 321 450 78 117 170 260 188 292 9 15 45 76 80 135 35 59
73 126 85 148 11 22 23 42 26 45 15 14 254 488 320 634 68 151 187 451 243
611 14 39 28 69 31 68 4 -1 25 -24 47 -50 128 -149 170 -194 334 -358 287
-288 555 -509 940 -775 174 -121 494 -309 725 -426 172 -88 282 -140 465 -219
255 -111 671 -255 955 -330 130 -35 152 -40 195 -49 11 -2 58 -13 105 -24 47
-12 102 -23 124 -26 21 -4 41 -8 45 -10 3 -2 29 -7 56 -10 28 -4 68 -11 90
-16 22 -5 60 -11 85 -15 25 -3 56 -8 70 -10 14 -2 45 -7 70 -10 25 -4 56 -8
70 -10 25 -4 126 -15 185 -20 17 -2 75 -6 130 -10 55 -4 116 -9 135 -11 55 -4
568 -5 635 0 105 7 229 17 260 20 86 9 162 19 180 22 11 2 43 6 70 10 241 27
683 141 970 250 11 4 22 8 25 9 3 1 22 9 44 18 21 9 40 17 43 17 2 0 23 9 46
19 254 116 389 189 572 309 72 48 132 89 135 92 3 3 34 27 70 55 156 120 287
245 459 439 126 143 295 411 392 624 84 186 165 434 193 597 3 17 8 39 10 50
3 20 16 98 22 145 26 181 25 524 -1 728 -50 391 -164 771 -341 1140 -35 73
-64 135 -64 138 0 3 -20 39 -45 80 -25 40 -45 76 -45 79 0 8 -162 269 -170
275 -4 3 -13 16 -20 30 -32 60 -296 407 -381 501 -13 14 -57 63 -98 108 -165
183 -383 392 -581 558 l-127 107 73 111 c41 60 93 141 116 178 24 37 54 86 68
107 54 86 189 307 210 345 12 22 26 45 30 50 9 12 125 218 183 325 23 41 58
107 79 145 107 197 448 912 448 940 0 2 11 29 25 59 65 143 185 456 277 726
44 131 155 483 163 520 2 8 17 68 35 133 17 64 33 125 35 135 30 121 95 416
99 447 2 11 6 34 9 50 4 17 9 46 12 65 3 19 10 58 15 85 9 50 13 75 26 170 3
28 8 59 10 70 2 11 7 47 10 80 3 33 7 71 10 85 2 14 6 56 9 95 4 38 8 84 10
102 22 161 22 805 1 920 -2 10 -7 54 -10 98 -4 44 -9 87 -11 95 -4 13 -11 62
-20 125 -5 39 -16 101 -25 140 -37 161 -54 231 -77 305 -34 114 -70 216 -93
267 -11 24 -20 45 -20 49 0 17 -139 282 -191 364 -151 237 -389 481 -599 615
-25 15 -56 36 -70 45 -99 66 -335 166 -508 214 -106 30 -129 35 -232 50 -25 4
-58 9 -75 13 -16 3 -48 8 -70 10 -51 5 -442 12 -447 8z"/>
<path d="M19054 25357 c-54 -11 -126 -62 -157 -111 -72 -115 -45 -260 65 -349
62 -50 89 -52 564 -51 487 1 475 -1 552 68 111 101 110 285 -3 384 -74 66 -65
65 -546 66 -240 1 -454 -2 -475 -7z"/>
<path d="M19408 24159 c-55 -8 -122 -42 -155 -77 -49 -52 -67 -101 -67 -183
-1 -67 2 -81 29 -124 36 -58 101 -110 155 -125 27 -7 278 -10 767 -8 725 3
728 3 768 25 161 87 194 295 67 419 -41 40 -80 61 -131 70 -46 9 -1373 11
-1433 3z"/>
<path d="M19175 22880 c-64 -14 -140 -72 -170 -130 -55 -106 -27 -244 65 -323
74 -63 47 -61 1005 -62 975 0 920 -4 1002 73 64 59 78 94 78 192 -1 74 -4 90
-27 125 -38 59 -79 93 -134 114 -46 18 -95 19 -919 18 -478 0 -883 -4 -900 -7z"/>
<path d="M19886 21639 c-35 -8 -87 -40 -123 -75 -17 -16 -53 -87 -59 -115 -25
-121 30 -237 138 -293 l56 -28 439 0 c241 0 453 3 472 6 49 10 85 31 130 76
105 106 91 294 -29 384 -21 16 -42 28 -47 28 -4 0 -14 5 -22 11 -18 15 -896
20 -955 6z"/>
<path d="M21104 12879 c-106 -40 -168 -129 -167 -244 0 -108 51 -188 151 -237
47 -22 48 -23 502 -22 436 0 457 1 500 20 53 25 111 80 134 129 24 49 27 140
8 198 -10 31 -32 65 -60 93 -80 80 -60 78 -567 80 -418 1 -454 0 -501 -17z"/>
<path d="M20980 11650 c-117 -32 -192 -129 -194 -250 -1 -107 54 -194 153
-242 l46 -23 890 1 c878 0 891 0 935 21 93 42 150 125 155 225 6 108 -46 199
-141 248 l-49 25 -885 1 c-487 0 -896 -2 -910 -6z"/>
<path d="M21092 10375 c-63 -15 -113 -50 -150 -105 -38 -55 -51 -104 -47 -167
7 -92 58 -168 146 -214 l44 -24 745 0 745 0 41 22 c199 106 194 385 -8 473
l-53 24 -708 1 c-473 0 -723 -3 -755 -10z"/>
<path d="M21957 9166 c-127 -46 -198 -183 -164 -316 24 -94 104 -167 202 -186
73 -13 867 -8 911 6 101 33 167 115 180 223 12 103 -38 198 -135 255 l-46 27
-455 2 c-363 2 -463 0 -493 -11z"/>
</g>
</svg>
